<svg xmlns="http://www.w3.org/2000/svg" width="278" height="120" fill="none" viewBox="0 0 278 120"><path fill="url(#paint0_linear_56_100)" d="M105.398 36.7291L104.84 33.9541C104.338 31.4624 103.201 29.1082 100.612 28.2082C99.7795 27.9207 98.8375 27.7999 98.2039 27.2041C97.5618 26.6082 97.3759 25.6791 97.2281 24.8207C96.9535 23.2457 96.7001 21.6707 96.417 20.0999C96.1763 18.7457 95.9862 17.2249 95.361 15.9874C94.5372 14.3207 92.8391 13.3457 91.1536 12.7041C90.2885 12.385 89.4056 12.1151 88.5092 11.8957C84.2849 10.7999 79.8494 10.3957 75.5111 10.1624C70.3016 9.87987 65.0783 9.9662 59.8813 10.4207C56.0161 10.7666 51.9397 11.1874 48.2646 12.5041C46.9213 12.9874 45.5357 13.5707 44.5134 14.5916C43.2588 15.8499 42.8533 17.7999 43.7657 19.3666C44.4163 20.4791 45.5188 21.2666 46.6889 21.7832C48.2097 22.4582 49.8022 22.9666 51.4328 23.3082C55.9739 24.2999 60.6797 24.6874 65.3179 24.8499C70.4631 25.0582 75.6125 24.8916 80.7365 24.3582C81.9996 24.2207 83.2627 24.0541 84.5215 23.8624C86.0084 23.6374 86.9631 21.7249 86.5238 20.3874C86 18.7916 84.5933 18.1749 83.0007 18.4166C81.0322 18.7249 78.9454 18.8666 77.1628 19.0249C72.1908 19.3582 67.202 19.3666 62.2258 19.0499C60.593 18.9433 58.9632 18.7947 57.3383 18.6041C56.975 18.5624 56.5779 18.4999 56.2484 18.4541C55.2219 18.3041 54.2039 18.1207 53.1901 17.9124C52.7212 17.7999 52.7212 17.1416 53.1901 17.0291H53.2112C54.3813 16.7791 55.5641 16.5791 56.7511 16.4166H56.7596C57.313 16.3791 57.8706 16.2832 58.4239 16.2166C63.2308 15.7245 68.0663 15.5574 72.8963 15.7166C75.7435 15.7957 78.5864 15.9957 81.4166 16.3166L82.3798 16.4457C83.5077 16.6124 84.6313 16.8124 85.7507 17.0499C87.4067 17.4041 89.5315 17.5207 90.2707 19.3082C90.5031 19.8791 90.6087 20.5082 90.7396 21.1041L92.0872 27.2874C92.1157 27.42 92.1163 27.5569 92.0889 27.6898C92.0615 27.8226 92.0067 27.9484 91.9278 28.0594C91.8489 28.1704 91.7478 28.2642 91.6306 28.335C91.5133 28.4058 91.3826 28.452 91.2465 28.4707H91.2339C91.0776 28.4957 90.917 28.5124 90.7607 28.5332C84.1161 29.3694 77.4235 29.78 70.725 29.7624C64.0879 29.7557 57.4579 29.3326 50.8752 28.4957C50.2838 28.4249 49.6375 28.3207 49.1136 28.2457C47.7365 28.0457 46.3721 27.7957 45.0034 27.5749C43.3433 27.3041 41.7592 27.4416 40.2596 28.2457C39.0345 28.9124 38.0334 29.9291 37.4082 31.1666C36.7577 32.4832 36.5676 33.9166 36.2803 35.3332C35.9888 36.7499 35.5368 38.2791 35.71 39.7332C36.0775 42.8707 38.2995 45.4207 41.4973 45.9916C57.3107 48.7751 73.4476 49.3028 89.4132 47.5582C89.7165 47.5242 90.0237 47.5577 90.3122 47.6563C90.6006 47.755 90.8629 47.9162 91.0798 48.1281C91.2967 48.34 91.4626 48.5973 91.5653 48.8808C91.668 49.1644 91.7048 49.4671 91.6732 49.7666L91.3733 52.6707L87.0729 93.9499C86.8997 95.6582 86.8744 97.4166 86.5449 99.1041C86.0296 101.758 84.2089 103.387 81.5518 103.983C79.1144 104.529 76.6305 104.817 74.134 104.837C71.3629 104.854 68.6002 104.733 65.8291 104.746C62.8763 104.762 59.2561 104.496 56.9792 102.329C54.9727 100.421 54.6981 97.4374 54.4236 94.8582L51.3356 65.6374L49.9754 52.7457C49.8191 51.2832 48.7673 49.8499 47.1113 49.9207C45.692 49.9832 44.0783 51.1707 44.2473 52.7499L45.2104 61.8541L49.2193 99.8207C49.8402 105.421 54.1785 108.437 59.5518 109.287C62.6862 109.787 65.9009 109.887 69.086 109.937C73.1666 110.004 77.2895 110.158 81.3026 109.429C87.2504 108.354 91.7154 104.437 92.3533 98.3582C93.7895 84.4749 95.2385 70.5957 96.6789 56.7124L97.5872 48.0166C97.6319 47.5854 97.8163 47.1798 98.113 46.8601C98.4098 46.5404 98.8031 46.3235 99.2346 46.2416C100.933 45.9166 102.559 45.3582 103.771 44.0832C105.694 42.0499 106.078 39.3999 105.398 36.7249V36.7291ZM99.1544 39.9457C98.5418 40.5166 97.6209 40.7832 96.7127 40.9166C86.5069 42.4124 76.1574 43.1666 65.8418 42.8332C58.4577 42.5832 51.154 41.7749 43.846 40.7582C43.1279 40.6582 42.3548 40.5291 41.8606 40.0082C40.9312 39.0249 41.3917 37.0499 41.6325 35.8624C41.8521 34.7791 42.2746 33.3249 43.5883 33.1707C45.6328 32.9332 48.0069 33.7874 50.0345 34.0874C52.4719 34.4541 54.9178 34.7499 57.3721 34.9707C67.8483 35.9124 78.5019 35.7624 88.9358 34.3874C90.8368 34.1374 92.7335 33.8457 94.6175 33.5124C96.303 33.2124 98.1659 32.6541 99.1797 34.3707C99.8809 35.5416 99.9739 37.1082 99.864 38.4291C99.8307 39.0059 99.5754 39.5484 99.1501 39.9457H99.1544ZM73.1371 56.1957C69.4958 57.7374 65.3644 59.4791 60.0038 59.4791C57.7633 59.4737 55.5338 59.1696 53.3759 58.5749L57.0806 96.0916C57.3552 99.3416 60.1094 101.842 63.417 101.842C63.417 101.842 68.6678 102.112 70.4209 102.112C72.3091 102.112 77.9654 101.842 77.9654 101.842C81.273 101.842 84.023 99.3416 84.2976 96.0916L88.2684 54.6332C86.477 53.9942 84.5888 53.6589 82.6839 53.6416C79.1947 53.6416 76.3855 54.8249 73.1371 56.1957Z"/><path fill="#0C243A" d="M64.9286 82.6973C64.9286 83.8301 65.3486 84.9336 66.1884 86.0078C67.3212 87.4141 68.8447 88.127 70.7587 88.1465V85.627C69.4111 85.627 68.4345 85.0312 67.829 83.8398C67.6142 83.4102 67.5068 83.0293 67.5068 82.6973V72.8242C67.5068 72.1406 67.7997 71.4863 68.3857 70.8613C69.0302 70.2168 69.8212 69.8848 70.7587 69.8652V67.3457C68.5322 67.3262 66.872 68.2441 65.7782 70.0996C65.2118 71.0566 64.9286 71.9648 64.9286 72.8242V82.6973ZM72.1943 88.1465C73.7568 88.1465 75.0947 87.5508 76.2079 86.3594C77.204 85.2852 77.7021 84.0547 77.7021 82.668L75.2704 82.082C75.2704 82.2969 75.2607 82.4531 75.2411 82.5508C75.2021 83 75.1435 83.332 75.0654 83.5469C74.8896 84.1133 74.5575 84.5723 74.0693 84.9238C73.6005 85.2754 73.1708 85.4805 72.7802 85.5391L72.1943 85.627V88.1465ZM72.1943 69.8652C72.1943 69.8652 72.4775 69.9336 73.0439 70.0703C74.0204 70.4805 74.6943 71.1641 75.0654 72.1211C75.1435 72.3555 75.2021 72.668 75.2411 73.0586V73.5273L77.7021 72.8828C77.7021 71.3984 77.0868 70.0703 75.8564 68.8984C74.7236 67.8633 73.5029 67.3457 72.1943 67.3457V69.8652Z"/><path fill="#276FB3" d="M123.64 63.1973C123.64 64.3301 124.06 65.4336 124.9 66.5078C126.032 67.9141 127.556 68.627 129.47 68.6465V66.127C128.122 66.127 127.146 65.5312 126.54 64.3398C126.325 63.9102 126.218 63.5293 126.218 63.1973V53.3242C126.218 52.6406 126.511 51.9863 127.097 51.3613C127.741 50.7168 128.532 50.3848 129.47 50.3652V47.8457C127.243 47.8262 125.583 48.7441 124.489 50.5996C123.923 51.5566 123.64 52.4648 123.64 53.3242V63.1973ZM130.905 68.6465C132.468 68.6465 133.806 68.0508 134.919 66.8594C135.915 65.7852 136.413 64.5547 136.413 63.168L133.982 62.582C133.982 62.7969 133.972 62.9531 133.952 63.0508C133.913 63.5 133.855 63.832 133.777 64.0469C133.601 64.6133 133.269 65.0723 132.78 65.4238C132.312 65.7754 131.882 65.9805 131.491 66.0391L130.905 66.127V68.6465ZM130.905 50.3652C130.905 50.3652 131.189 50.4336 131.755 50.5703C132.732 50.9805 133.405 51.6641 133.777 52.6211C133.855 52.8555 133.913 53.168 133.952 53.5586V54.0273L136.413 53.3828C136.413 51.8984 135.798 50.5703 134.568 49.3984C133.435 48.3633 132.214 47.8457 130.905 47.8457V50.3652ZM138.288 64.8086C138.288 65.8828 138.816 66.791 139.87 67.5332C140.769 68.1582 141.823 68.4707 143.034 68.4707V66.1855C141.335 66.1465 140.476 65.502 140.456 64.252V63.4609C140.476 63.0312 140.593 62.7188 140.808 62.5234C141.042 62.3086 142.087 61.9766 143.943 61.5273C145.388 61.1758 146.364 60.8633 146.872 60.5898V63.959C146.872 65.2285 146.257 65.9609 145.027 66.1562C144.831 66.1758 144.646 66.1855 144.47 66.1855V68.4707C145.837 68.4512 146.911 68.1094 147.693 67.4453C148.298 68.1289 149.089 68.4707 150.066 68.4707V66.1562C149.558 66.1172 149.294 65.7949 149.275 65.1895V57.1621C149.275 55.9121 148.796 54.8184 147.839 53.8809C146.941 53.0215 145.818 52.5918 144.47 52.5918V54.8477C145.388 54.8477 146.071 55.2188 146.521 55.9609C146.755 56.3516 146.872 56.7812 146.872 57.25V57.8066C146.872 58.2949 145.71 58.8613 143.386 59.5059C141.296 60.0918 140.095 60.4629 139.782 60.6191C138.786 61.2051 138.288 62.1328 138.288 63.4023V64.8086ZM138.493 56.5762L140.661 57.3965C140.661 56.3027 141.111 55.541 142.009 55.1113C142.341 54.9551 142.693 54.877 143.064 54.877V52.5918C141.716 52.5918 140.564 53.0801 139.607 54.0566C138.864 54.7988 138.493 55.6387 138.493 56.5762ZM156.277 68.5V66.127H158.474C159.587 66.127 160.349 65.6973 160.759 64.8379C160.876 64.584 160.935 64.3398 160.935 64.1055V57.0449C160.935 56.498 160.642 56.0098 160.056 55.5801C159.568 55.209 158.982 55.0234 158.298 55.0234H156.159V52.6504H158.298C160.193 52.6504 161.638 53.3926 162.634 54.877C163.122 55.5996 163.366 56.293 163.366 56.957V64.1934C163.366 65.1504 162.956 66.0684 162.136 66.9473C161.159 67.9824 159.929 68.5 158.445 68.5H156.277ZM152.204 74.0664V52.6504H154.782V74.0664H152.204ZM169.782 68.5V66.127H171.98C173.093 66.127 173.855 65.6973 174.265 64.8379C174.382 64.584 174.441 64.3398 174.441 64.1055V57.0449C174.441 56.498 174.148 56.0098 173.562 55.5801C173.073 55.209 172.487 55.0234 171.804 55.0234H169.665V52.6504H171.804C173.698 52.6504 175.144 53.3926 176.14 54.877C176.628 55.5996 176.872 56.293 176.872 56.957V64.1934C176.872 65.1504 176.462 66.0684 175.642 66.9473C174.665 67.9824 173.435 68.5 171.95 68.5H169.782ZM165.71 74.0664V52.6504H168.288V74.0664H165.71ZM179.187 64.1641V56.8984C179.206 56 179.636 55.1113 180.476 54.2324C181.491 53.1973 182.722 52.6699 184.167 52.6504V54.9648C183.23 54.9648 182.497 55.375 181.97 56.1953C181.755 56.5469 181.648 56.8691 181.648 57.1621V59.1543H188.21V57.1621C188.21 56.2832 187.761 55.6387 186.862 55.2285C186.452 55.0332 186.032 54.9355 185.603 54.9355V52.6504C186.95 52.6504 188.152 53.1289 189.206 54.0859C190.085 54.9258 190.534 55.8535 190.554 56.8691V61.5273H181.648V64.1641C181.648 64.7109 181.96 65.2188 182.585 65.6875C183.093 66.0391 183.63 66.2148 184.196 66.2148V68.5C182.419 68.5 181.023 67.7773 180.007 66.332C179.46 65.5703 179.187 64.8477 179.187 64.1641ZM185.603 68.5V66.1855C186.775 66.1855 187.653 65.6777 188.239 64.6621C188.357 64.4473 188.445 64.2422 188.503 64.0469L190.583 64.8086C190.232 66.1562 189.431 67.1719 188.181 67.8555C187.38 68.2852 186.521 68.5 185.603 68.5ZM192.986 68.5V47.8164H195.593V68.5H192.986ZM197.79 64.8086C197.79 65.8828 198.318 66.791 199.372 67.5332C200.271 68.1582 201.325 68.4707 202.536 68.4707V66.1855C200.837 66.1465 199.978 65.502 199.958 64.252V63.4609C199.978 63.0312 200.095 62.7188 200.31 62.5234C200.544 62.3086 201.589 61.9766 203.445 61.5273C204.89 61.1758 205.866 60.8633 206.374 60.5898V63.959C206.374 65.2285 205.759 65.9609 204.528 66.1562C204.333 66.1758 204.148 66.1855 203.972 66.1855V68.4707C205.339 68.4512 206.413 68.1094 207.195 67.4453C207.8 68.1289 208.591 68.4707 209.568 68.4707V66.1562C209.06 66.1172 208.796 65.7949 208.777 65.1895V57.1621C208.777 55.9121 208.298 54.8184 207.341 53.8809C206.443 53.0215 205.32 52.5918 203.972 52.5918V54.8477C204.89 54.8477 205.573 55.2188 206.023 55.9609C206.257 56.3516 206.374 56.7812 206.374 57.25V57.8066C206.374 58.2949 205.212 58.8613 202.888 59.5059C200.798 60.0918 199.597 60.4629 199.284 60.6191C198.288 61.2051 197.79 62.1328 197.79 63.4023V64.8086ZM197.995 56.5762L200.163 57.3965C200.163 56.3027 200.612 55.541 201.511 55.1113C201.843 54.9551 202.195 54.877 202.566 54.877V52.5918C201.218 52.5918 200.066 53.0801 199.109 54.0566C198.366 54.7988 197.995 55.6387 197.995 56.5762ZM211.677 64.1641C211.677 65.1992 212.077 66.1465 212.878 67.0059C213.816 68.002 215.056 68.5 216.599 68.5V66.1562C215.544 66.1562 214.792 65.7656 214.343 64.9844C214.187 64.7109 214.109 64.4375 214.109 64.1641V57.0449C214.109 56.4199 214.431 55.8828 215.075 55.4336C215.525 55.1406 216.032 54.9941 216.599 54.9941V52.6504C214.724 52.6504 213.318 53.3828 212.38 54.8477C211.911 55.5703 211.677 56.2832 211.677 56.9863V64.1641ZM217.917 55.0234C218.874 55.0234 219.538 55.4336 219.909 56.2539C220.046 56.5664 220.124 56.8887 220.144 57.2207V57.9238L222.429 57.0449C222.429 55.6191 221.843 54.457 220.671 53.5586C219.851 52.9531 218.933 52.6504 217.917 52.6504V55.0234ZM217.917 68.5293C219.304 68.5488 220.515 68.0215 221.55 66.9473C222.37 66.0684 222.78 65.1113 222.78 64.0762L220.495 63.2266C220.495 63.2461 220.495 63.2656 220.495 63.2852C220.495 63.3047 220.495 63.3438 220.495 63.4023C220.495 63.4609 220.495 63.5098 220.495 63.5488C220.495 63.5879 220.495 63.6367 220.495 63.6953C220.495 63.7344 220.495 63.7734 220.495 63.8125L220.466 63.8711C220.368 64.9648 219.821 65.6777 218.825 66.0098C218.532 66.1074 218.23 66.1562 217.917 66.1562V68.5293ZM224.861 50.4824C224.861 49.877 225.144 49.4473 225.71 49.1934C225.905 49.1152 226.101 49.0762 226.296 49.0762C226.882 49.0762 227.312 49.3496 227.585 49.8965C227.663 50.0918 227.702 50.2871 227.702 50.4824C227.702 51.0684 227.429 51.498 226.882 51.7715C226.687 51.8496 226.491 51.8887 226.296 51.8887C225.691 51.8887 225.251 51.6152 224.978 51.0684C224.9 50.873 224.861 50.6777 224.861 50.4824ZM225.066 68.5V53.0605H227.527V68.5H225.066ZM230.163 68.5V56.9277C230.163 55.9902 230.583 55.0723 231.423 54.1738C232.458 53.1191 233.737 52.5918 235.261 52.5918V55.0234C234.265 55.0234 233.503 55.4141 232.976 56.1953C232.761 56.5273 232.653 56.8691 232.653 57.2207V68.5H230.163ZM236.55 55.0234V52.5918C238.366 52.5918 239.782 53.3242 240.798 54.7891C241.345 55.5508 241.618 56.2637 241.618 56.9277V68.5H239.128V57.2207C239.128 56.6152 238.825 56.0781 238.22 55.6094C237.732 55.2188 237.175 55.0234 236.55 55.0234ZM243.845 64.1641V56.9277C243.845 56.0098 244.255 55.1113 245.075 54.2324C246.091 53.1777 247.361 52.6504 248.884 52.6504V55.0234C247.732 55.0234 246.931 55.502 246.482 56.459C246.345 56.752 246.277 57.0449 246.277 57.3379V63.7832C246.277 64.5059 246.609 65.1211 247.273 65.6289C247.741 65.9805 248.278 66.1562 248.884 66.1562V68.5293C247.028 68.5293 245.593 67.7773 244.577 66.2734C244.089 65.5312 243.845 64.8281 243.845 64.1641ZM250.144 68.5293V66.1562C251.179 66.1562 251.921 65.6875 252.37 64.75C252.527 64.4375 252.605 64.1348 252.605 63.8418V57.3379C252.605 56.5371 252.263 55.9023 251.579 55.4336C251.15 55.1602 250.661 55.0234 250.114 55.0234V52.6504C251.911 52.6504 253.298 53.3828 254.275 54.8477C254.763 55.5703 255.007 56.2637 255.007 56.9277V64.1641C255.007 65.1211 254.597 66.0488 253.777 66.9473C252.82 67.9824 251.609 68.5098 250.144 68.5293Z"/><defs><linearGradient id="paint0_linear_56_100" x1="70.691" x2="85.491" y1="-13" y2="126.043" gradientUnits="userSpaceOnUse"><stop stop-color="#55A7F3"/><stop offset="1" stop-color="#183855"/></linearGradient></defs></svg>